<svg xmlns="http://www.w3.org/2000/svg" xmlns:xlink="http://www.w3.org/1999/xlink" viewBox="0 0 244.8 324"><defs><style>.cls-1{fill:#d34a4a;}.cls-2{fill:#f98f8f;}.cls-3{fill:#fff;}.cls-4,.cls-5{fill:none;}.cls-24,.cls-26,.cls-28,.cls-30,.cls-4,.cls-5{stroke:#000;stroke-miterlimit:10;}.cls-4{stroke-width:4px;}.cls-5{stroke-width:2.24px;}.cls-6{font-size:18px;}.cls-19,.cls-32,.cls-6,.cls-7,.cls-9{font-family:MyriadPro-Regular, Myriad Pro;}.cls-7{font-size:21px;}.cls-8{letter-spacing:-0.03em;}.cls-9{font-size:10px;}.cls-10{letter-spacing:0em;}.cls-11{letter-spacing:0em;}.cls-12{letter-spacing:-0.01em;}.cls-13{letter-spacing:-0.01em;}.cls-14{letter-spacing:0em;}.cls-15{letter-spacing:0em;}.cls-16{letter-spacing:-0.01em;}.cls-17{letter-spacing:-0.01em;}.cls-18{letter-spacing:-0.02em;}.cls-19{font-size:14px;}.cls-20{letter-spacing:0.01em;}.cls-21{letter-spacing:0em;}.cls-22{letter-spacing:-0.03em;}.cls-23{letter-spacing:-0.07em;}.cls-24{fill:red;}.cls-25{fill:#f77c7c;}.cls-26{fill:blue;}.cls-27{fill:#7777fc;}.cls-28{fill:#006837;}.cls-29{fill:#428966;}.cls-30{fill:#543417;}.cls-31{fill:#725238;}.cls-32{font-size:8px;}</style></defs><title>Artboard 1</title><g id="Layer_2" data-name="Layer 2"><image width="696" height="1000" transform="translate(-149) scale(0.56 0.2)" xlink:href="../gallantmonShield.jpg"/></g><g id="Layer_1" data-name="Layer 1"><path class="cls-1" d="M244.6,198V324.19H.64V198H27.73a11.88,11.88,0,0,0,4.77,1h18a11.88,11.88,0,0,0,4.77-1H244.6Zm-6.1,71V215.5a12,12,0,0,0-12-12H17.5a12,12,0,0,0-12,12V269a12,12,0,0,0,12,12h209A12,12,0,0,0,238.5,269Zm-.5,32.75C238,293.05,216,286,188.75,286s-49.25,7.05-49.25,15.75,22.05,15.75,49.25,15.75S238,310.45,238,301.75Zm-133.5.5c0-8.7-22-15.75-49.25-15.75S6,293.55,6,302.25,28.05,318,55.25,318,104.5,311,104.5,302.25Z"/><polygon class="cls-2" points="244.6 0.05 244.6 56.95 243.6 56.95 198.05 56.95 198.05 0.05 244.6 0.05"/><rect class="cls-2" x="5.5" y="203.5" width="233" height="77.5" rx="12" ry="12"/><ellipse class="cls-2" cx="188.75" cy="301.75" rx="49.25" ry="15.75"/><polygon class="cls-2" points="172.62 0.05 172.62 0.91 151.63 27.78 84.5 27.78 0.64 27.78 0.64 0.05 172.62 0.05"/><ellipse class="cls-2" cx="55.25" cy="302.25" rx="49.25" ry="15.75"/><rect class="cls-2" x="0.64" y="27.78" width="83.86" height="14.72"/><path class="cls-2" d="M62.5,185v2a12,12,0,0,1-7.23,11H27.73a12,12,0,0,1-7.23-11v-2a12,12,0,0,1,12-12h18A12,12,0,0,1,62.5,185Z"/><path class="cls-3" d="M27.73,198H55.27a11.88,11.88,0,0,1-4.77,1h-18A11.88,11.88,0,0,1,27.73,198Z"/><polygon class="cls-4" points="244.6 198 244.6 324.19 0.64 324.19 0.64 198 0.64 42.5 0.64 27.78 0.64 0.05 172.62 0.05 198.05 0.05 244.6 0.05 244.6 56.95 244.6 198"/><polyline class="cls-4" points="172.62 0.91 151.63 27.78 151.07 28.5"/><polyline class="cls-4" points="152.5 27.78 151.63 27.78 84.5 27.78"/><polyline class="cls-4" points="198.05 -0.95 198.05 0.05 198.05 56.95 198.05 58.1"/><polyline class="cls-4" points="196.62 56.95 198.05 56.95 243.6 56.95"/><polyline class="cls-4" points="0.5 198 0.64 198 27.73 198 55.27 198 244.5 198"/><ellipse class="cls-5" cx="55.25" cy="302.25" rx="49.25" ry="15.75"/><ellipse class="cls-5" cx="188.75" cy="301.75" rx="49.25" ry="15.75"/><path class="cls-5" d="M55.27,198a12,12,0,0,0,7.23-11v-2a12,12,0,0,0-12-12h-18a12,12,0,0,0-12,12v2a12,12,0,0,0,7.23,11,11.88,11.88,0,0,0,4.77,1h18A11.88,11.88,0,0,0,55.27,198Z"/><rect class="cls-5" x="5.5" y="203.5" width="233" height="77.5" rx="12" ry="12"/><polygon class="cls-5" points="84.5 27.78 84.5 42.5 0.64 42.5 -0.52 42.5 -0.52 27.78 0.64 27.78 84.5 27.78"/><text class="cls-6" transform="translate(35.5 194.28)">-</text><text class="cls-7" transform="translate(33 309.41)"><tspan xml:space="preserve">  +0</tspan><tspan class="cls-8" x="32.19" y="0">	</tspan></text><text class="cls-7" transform="translate(167 308.91)">+300</text><text class="cls-9" transform="translate(15 218.6)">[<tspan class="cls-10" x="2.84" y="0">E</tspan><tspan x="7.72" y="0">quipme</tspan><tspan class="cls-10" x="40.24" y="0">n</tspan><tspan x="45.75" y="0">t] </tspan><tspan class="cls-11" x="54.02" y="0">P</tspan><tspan x="59.29" y="0">la</tspan><tspan class="cls-12" x="66.47" y="0">c</tspan><tspan x="70.89" y="0">e this ca</tspan><tspan class="cls-13" x="104.6" y="0">r</tspan><tspan class="cls-14" x="107.77" y="0">d undea</tspan><tspan class="cls-15" x="142.06" y="0">r</tspan><tspan x="145.37" y="0">ne</tspan><tspan class="cls-10" x="155.93" y="0">a</tspan><tspan x="160.71" y="0">th the ally </tspan><tspan x="0" y="12">th</tspan><tspan class="cls-10" x="8.86" y="12">a</tspan><tspan x="13.64" y="12">t </tspan><tspan class="cls-16" x="19.07" y="12">y</tspan><tspan x="23.68" y="12">ou wish </tspan><tspan class="cls-17" x="58.13" y="12">t</tspan><tspan x="61.38" y="12">o equip it </tspan><tspan class="cls-12" x="103.06" y="12">t</tspan><tspan class="cls-18" x="106.31" y="12">o</tspan><tspan x="111.56" y="12">.</tspan></text><text class="cls-19" transform="translate(6.5 16.94)"><tspan class="cls-20">G</tspan><tspan x="9.16" y="0">alla</tspan><tspan class="cls-21" x="29.26" y="0">n</tspan><tspan x="36.97" y="0">tmo</tspan><tspan class="cls-22" x="60.97" y="0">n</tspan><tspan class="cls-23" x="68.28" y="0">’</tspan><tspan x="70.17" y="0">s Shield</tspan></text><text class="cls-9" transform="translate(5 38.6)"><tspan class="cls-10">E</tspan><tspan x="4.88" y="0">quipme</tspan><tspan class="cls-10" x="37.4" y="0">n</tspan><tspan x="42.91" y="0">t</tspan></text><ellipse class="cls-24" cx="234.5" cy="9" rx="6.75" ry="5.75"/><ellipse class="cls-25" cx="231.92" cy="6.37" rx="1.13" ry="1.08"/><ellipse class="cls-26" cx="234.25" cy="21.79" rx="6.75" ry="5.75"/><ellipse class="cls-27" cx="232.17" cy="19.17" rx="1.13" ry="1.08"/><ellipse class="cls-28" cx="234.54" cy="34.54" rx="6.75" ry="5.75"/><ellipse class="cls-29" cx="232.29" cy="32" rx="1.13" ry="1.08"/><ellipse class="cls-30" cx="234.71" cy="47.63" rx="6.75" ry="5.75"/><ellipse class="cls-31" cx="232.46" cy="45.08" rx="1.13" ry="1.08"/><text class="cls-9" transform="translate(209.75 11.35)">3</text><text class="cls-9" transform="translate(209.75 24.6)">0</text><text class="cls-9" transform="translate(209.75 37.1)">0</text><text class="cls-9" transform="translate(210 50.6)">0</text><text class="cls-32" transform="translate(32.5 179.93)">Li<tspan class="cls-16" x="5.65" y="0">v</tspan><tspan x="9.42" y="0">es</tspan></text></g></svg>